<svg xmlns="http://www.w3.org/2000/svg" width="21.782" height="21.602" viewBox="0 0 21.782 21.602">
    <g id="_14" data-name="14" transform="translate(-1.07 -1.25)">
        <g id="Group_35189" data-name="Group 35189">
            <path id="Path_36129" data-name="Path 36129" d="M10.5,2.75A7.75,7.75,0,0,0,3.766,14.34a.75.75,0,0,1,.046.65L2.593,18.037a.25.25,0,0,0,.33.323l2.92-1.252a.75.75,0,0,1,.681.046A7.751,7.751,0,1,0,10.5,2.75ZM1.25,10.5A9.251,9.251,0,0,1,19.585,8.751,7.753,7.753,0,0,1,21.9,18.53l.805,1.877a1.75,1.75,0,0,1-2.3,2.3L18.53,21.9a7.753,7.753,0,0,1-9.779-2.315,9.19,9.19,0,0,1-2.66-.951l-2.577,1.1A1.75,1.75,0,0,1,1.2,17.48l1.088-2.72A9.213,9.213,0,0,1,1.25,10.5Zm9.676,9.24a6.252,6.252,0,0,0,7.191.678.75.75,0,0,1,.67-.04l2.21.948A.25.25,0,0,0,21.326,21l-.947-2.21a.75.75,0,0,1,.04-.67,6.257,6.257,0,0,0-.679-7.192,9.25,9.25,0,0,1-8.814,8.814ZM6.25,9A.75.75,0,0,1,7,8.25h3a.75.75,0,0,1,0,1.5H7A.75.75,0,0,1,6.25,9Zm0,4A.75.75,0,0,1,7,12.25h7a.75.75,0,1,1,0,1.5H7A.75.75,0,0,1,6.25,13Z" fill="#fff" fill-rule="evenodd"/>
        </g>
    </g>
</svg>
